<?xml version="1.0" encoding="utf-8"?>
<!DOCTYPE svg PUBLIC "-//W3C//DTD SVG 1.1//EN" "http://www.w3.org/Graphics/SVG/1.1/DTD/svg11.dtd">
<svg version="1.1" id="Layer_1" xmlns="http://www.w3.org/2000/svg" xmlns:xlink="http://www.w3.org/1999/xlink" x="0px" y="0px"
         width="180px" height="57.424px" viewBox="0 0 180 57.424" enable-background="new 0 0 180 57.424" xml:space="preserve">
<g>
        <path fill="#596068" d="M5.644,26.262c-1.862,0-3.15-1.553-3.15-3.414v-0.028c0-1.861,1.318-3.38,3.15-3.38
                c1.084,0,1.936,0.466,2.774,1.225l1.519-1.752c-1.01-0.99-2.231-1.673-4.278-1.673C2.326,17.238,0,19.763,0,22.847v0.032
                c0,3.116,2.372,5.581,5.565,5.581c2.092,0,3.334-0.744,4.448-1.937l-1.519-1.534C7.644,25.762,6.882,26.262,5.644,26.262z"/>
        <path fill="#596068" d="M16.346,17.238c-3.348,0-5.783,2.526-5.783,5.61v0.033c0,3.084,2.403,5.58,5.752,5.58
                c3.35,0,5.784-2.528,5.784-5.613v-0.028C22.099,19.733,19.695,17.238,16.346,17.238z M19.603,22.879
                c0,1.859-1.333,3.381-3.256,3.381c-1.923,0-3.288-1.553-3.288-3.414v-0.028c0-1.861,1.335-3.379,3.256-3.379
                c1.924,0,3.288,1.55,3.288,3.409V22.879z"/>
        <polygon fill="#596068" points="30.969,24.104 25.884,17.422 23.684,17.422 23.684,28.274 26.038,28.274 26.038,21.375
                31.294,28.274 33.325,28.274 33.325,17.422 30.969,17.422         "/>
        <path fill="#596068" d="M40.385,21.777c-1.876-0.479-2.341-0.711-2.341-1.425v-0.029c0-0.528,0.481-0.947,1.396-0.947
                c0.916,0,1.859,0.403,2.821,1.072l1.238-1.8c-1.1-0.884-2.447-1.38-4.028-1.38c-2.217,0-3.8,1.302-3.8,3.273v0.028
                c0,2.156,1.412,2.762,3.597,3.32c1.815,0.465,2.186,0.773,2.186,1.378v0.03c0,0.636-0.588,1.026-1.565,1.026
                c-1.239,0-2.262-0.513-3.24-1.32l-1.412,1.692c1.303,1.161,2.962,1.734,4.606,1.734c2.338,0,3.981-1.209,3.981-3.363v-0.031
                C43.824,23.143,42.585,22.35,40.385,21.777z"/>
        <polygon fill="#596068" points="48.287,23.872 53.403,23.872 53.403,21.747 48.287,21.747 48.287,19.548 54.099,19.548
                54.099,17.422 45.917,17.422 45.917,28.274 54.18,28.274 54.18,26.153 48.287,26.153         "/>
        <path fill="#596068" d="M65.693,21.035v-0.032c0-1.021-0.325-1.876-0.93-2.479c-0.713-0.716-1.781-1.101-3.164-1.101h-4.96v10.852
                h2.387v-3.472h1.844h0.033l2.324,3.472h2.792l-2.651-3.875C64.748,23.888,65.693,22.786,65.693,21.035z M63.276,21.159
                c0,0.915-0.668,1.534-1.83,1.534h-2.419v-3.116h2.372c1.163,0,1.877,0.529,1.877,1.552V21.159z"/>
        <polygon fill="#596068" points="74.875,17.422 72.037,25.066 69.201,17.422 66.565,17.422 70.952,28.353 73.06,28.353
                77.448,17.422         "/>
        <path fill="#596068" d="M81.098,17.345l-4.651,10.929h2.434l0.993-2.434h4.589l0.994,2.434h2.496l-4.653-10.929H81.098z
                 M80.726,23.733l1.442-3.52l1.443,3.52H80.726z"/>
        <polygon fill="#596068" points="87.3,19.626 90.603,19.626 90.603,28.275 92.989,28.275 92.989,19.626 96.292,19.626
                96.292,17.423 87.3,17.423         "/>
        <rect x="98.076" y="17.423" fill="#596068" width="2.385" height="10.852"/>
        <path fill="#596068" d="M108.172,17.238c-3.349,0-5.784,2.526-5.784,5.61v0.033c0,3.084,2.403,5.58,5.753,5.58
                c3.349,0,5.783-2.528,5.783-5.613v-0.028C113.922,19.733,111.521,17.238,108.172,17.238z M111.429,22.879
                c0,1.859-1.334,3.381-3.257,3.381c-1.922,0-3.285-1.553-3.285-3.414v-0.028c0-1.861,1.33-3.379,3.254-3.379
                c1.923,0,3.288,1.55,3.288,3.409V22.879L111.429,22.879z"/>
        <polygon fill="#596068" points="123.178,17.422 123.178,24.104 118.09,17.422 115.892,17.422 115.892,28.274 118.249,28.274
                118.249,21.375 123.503,28.274 125.536,28.274 125.536,17.422         "/>
</g>
<g>
        <rect x="1.485" y="32.589" fill="#596068" width="1.192" height="10.565"/>
        <polygon fill="#596068" points="13.352,41.056 6.693,32.589 5.574,32.589 5.574,43.154 6.738,43.154 6.738,34.49 13.562,43.154
                14.513,43.154 14.513,32.589 13.352,32.589         "/>
        <polygon fill="#596068" points="16.551,33.691 20.098,33.691 20.098,43.154 21.306,43.154 21.306,33.691 24.855,33.691
                24.855,32.589 16.551,32.589         "/>
        <polygon fill="#596068" points="28.083,38.368 33.854,38.368 33.854,37.283 28.083,37.283 28.083,33.674 34.531,33.674
                34.531,32.589 26.892,32.589 26.892,43.154 34.607,43.154 34.607,42.068 28.083,42.068         "/>
        <path fill="#596068" d="M45.174,35.758v-0.029c0-0.833-0.303-1.569-0.817-2.082c-0.662-0.663-1.704-1.058-3.002-1.058H36.81v10.566
                h1.194V39.05h2.988h0.031l3.062,4.105h1.466l-3.246-4.318C43.965,38.536,45.174,37.51,45.174,35.758z M38.004,37.978v-4.286h3.262
                c1.705,0,2.7,0.78,2.7,2.081v0.029c0,1.359-1.129,2.174-2.715,2.174h-3.246V37.978z"/>
        <polygon fill="#596068" points="55.302,41.056 48.645,32.589 47.526,32.589 47.526,43.154 48.689,43.154 48.689,34.49
                55.513,43.154 56.465,43.154 56.465,32.589 55.302,32.589         "/>
        <path fill="#596068" d="M63.166,32.514l-4.815,10.641h1.223l1.253-2.791h5.752l1.238,2.791h1.282l-4.815-10.641H63.166z
                 M61.297,39.289l2.414-5.39l2.402,5.39H61.297z"/>
        <polygon fill="#596068" points="68.872,33.691 72.421,33.691 72.421,43.154 73.63,43.154 73.63,33.691 77.177,33.691
                77.177,32.589 68.872,32.589         "/>
        <rect x="79.319" y="32.589" fill="#596068" width="1.194" height="10.565"/>
        <path fill="#596068" d="M88.35,32.408c-3.217,0-5.406,2.551-5.406,5.463v0.031c0,2.912,2.159,5.435,5.376,5.435
                c3.216,0,5.406-2.551,5.406-5.466c0.015-0.013,0.015-0.013,0-0.03C93.727,34.928,91.568,32.408,88.35,32.408z M92.485,37.902
                c0,2.397-1.72,4.334-4.136,4.334s-4.167-1.964-4.167-4.366v-0.03c0-2.399,1.721-4.331,4.137-4.331c2.415,0,4.166,1.961,4.166,4.361
                V37.902z"/>
        <polygon fill="#596068" points="103.828,41.056 97.167,32.589 96.053,32.589 96.053,43.154 97.214,43.154 97.214,34.49
                104.037,43.154 104.988,43.154 104.988,32.589 103.828,32.589         "/>
        <path fill="#596068" d="M111.694,32.514l-4.817,10.641h1.222l1.254-2.791h5.754l1.236,2.791h1.285l-4.816-10.641H111.694z
                 M109.819,39.289l2.418-5.39l2.397,5.39H109.819z"/>
        <polygon fill="#596068" points="120.705,42.056 120.705,32.589 119.512,32.589 119.512,43.154 126.654,43.154 126.654,42.056         "/>
</g>
<path fill="#1682C9" d="M141.019,38.976c-4.123-4.116-6.689-9.852-6.685-16.143c-0.005-6.293,2.562-12.027,6.685-16.148
        c4.117-4.126,9.854-6.688,16.146-6.684c6.291-0.004,12.028,2.559,16.146,6.684C177.433,10.805,180,16.54,180,22.832
        c0,6.29-2.566,12.027-6.688,16.144c-4.118,4.128-9.854,6.692-16.146,6.689h-0.009C150.867,45.666,145.135,43.104,141.019,38.976
         M147.246,12.914c-2.548,2.552-4.106,6.028-4.109,9.919c0.003,3.887,1.562,7.368,4.109,9.918c2.554,2.543,6.03,4.105,9.92,4.107
        c3.889-0.003,7.368-1.564,9.919-4.107c2.543-2.552,4.106-6.031,4.108-9.918c-0.002-3.892-1.565-7.367-4.108-9.919
        c-2.551-2.548-6.029-4.107-9.919-4.107C153.276,8.805,149.799,10.366,147.246,12.914"/>
<rect x="140.256" y="48.618" fill="#3F9D38" width="33.819" height="8.806"/>
</svg>