<svg id="Layer_1" data-name="Layer 1" xmlns="http://www.w3.org/2000/svg" viewBox="0 0 141.73 141.73"><defs><style>.cls-1{fill:#2372b9;}.cls-2{fill:#fff;}</style></defs><title>Items</title><path class="cls-1" d="M58.63,89L57.79,89a2.35,2.35,0,0,1,.6-0.07A1,1,0,0,1,58.63,89Z"/><path class="cls-1" d="M107.68,25.32c-1.36-1.36-2.57-1.86-6.78-1.86-0.9,0-1.93,0-3.13.06-11.31.39-29.13,2-40.34,13.24-9.17,9.16-11.81,22.83-12.8,33.6,6.83-3.93,14.46-6.71,22.73-6.71,11.29,0,21.41,5.11,29.66,11.1,10.92-11.69,12.29-30.18,12.41-41.31C109.5,27.23,109.23,26.87,107.68,25.32ZM86.94,37.78c1.55-1.55,4.61-1,6.84,1.23S96.56,44.3,95,45.85s-4.61,1-6.84-1.24S85.39,39.32,86.94,37.78ZM76.55,33.36c1.42-1.33,3.92-.95,5.59.86s1.85,4.36.44,5.69S78.65,40.86,77,39,75.13,34.69,76.55,33.36ZM68.13,38.9c1.49-1.39,4.1-1,5.85.91s1.94,4.57.46,6-4.11,1-5.85-.91S66.64,40.3,68.13,38.9ZM62.74,60.21c-1.34,1.42-3.88,1.22-5.69-.44s-2.2-4.16-.87-5.59,3.87-1.22,5.69.44S64.06,58.79,62.74,60.21Zm5.08-7.94c-1.41,1.41-4,1.11-5.8-.67s-2.08-4.39-.67-5.8,4-1.12,5.8.67S69.24,50.85,67.82,52.27ZM81.69,60c-1.7,1.7-5.07,1.1-7.52-1.35s-3.06-5.82-1.36-7.52,5.07-1.09,7.52,1.36S83.39,58.27,81.69,60Zm-0.52-8.35c-2.34-2.34-2.92-5.56-1.29-7.18s4.83-1,7.17,1.29,2.92,5.56,1.3,7.18S83.51,53.95,81.17,51.62ZM94.08,64.85c-1.39,1.49-4.06,1.29-6-.46s-2.3-4.36-.91-5.84,4.06-1.29,6,.46S95.47,63.37,94.08,64.85Zm5.36-8.6c-1.33,1.42-3.87,1.22-5.69-.44s-2.2-4.17-.86-5.59,3.87-1.22,5.68.44S100.77,54.83,99.44,56.25Zm1.35-17.48c-1.3,1.3-3.87.83-5.74-1S92.72,33.29,94,32s3.87-.83,5.74,1S102.09,37.47,100.79,38.77Z"/><path class="cls-1" d="M105.25,86.82c-2.25-2.1-4.91-4.47-7.9-6.82l-1.61-1.24c-0.55-.4-1.1-0.81-1.67-1.21-7.49-5.32-16.68-9.9-26.71-9.9-8.48,0-16.35,3.34-23.1,7.58-0.71.44-1.4,0.9-2.08,1.36s-1.4,1-2.08,1.45a119.26,119.26,0,0,0-9.38,7.62c-5.73,5.07-7.06,7-7.06,9.31s0.68,4.22,6.2,9.18c8.36,7.53,22.19,18.4,37.5,18.4,16.45,0,31-12.5,39.12-20.46,4.44-4.35,4.51-4.8,4.51-7S110.24,91.48,105.25,86.82ZM39.61,99.64c-1.8,0-3.26-2.1-3.26-4.69s1.46-4.69,3.26-4.69,3.25,2.1,3.25,4.69S41.41,99.64,39.61,99.64ZM83.29,78.77c1.69,0.06,3,1.62,3.29,3.65a5.45,5.45,0,0,1,0,.91,5.33,5.33,0,0,1-.24,1.41h0a3.73,3.73,0,0,1-3.46,2.93A3,3,0,0,1,81,86.89a4.13,4.13,0,0,1-1.14-1.72,5.31,5.31,0,0,1-.31-2.06C79.68,80.65,81.34,78.71,83.29,78.77Zm-9.88-2c2,0.06,3.6,2.2,3.49,4.78s-1.85,4.6-3.88,4.54-3.6-2.21-3.5-4.78S71.37,76.67,73.41,76.74Zm-9.67.08c2,0,3.63,2,3.63,4.58S65.74,86,63.74,86s-3.62-2.05-3.62-4.57S61.74,76.82,63.74,76.82Zm-10.36,2c2-.06,3.61,1.88,3.71,4.34s-1.39,4.49-3.33,4.56-3.61-1.88-3.71-4.34S51.44,78.84,53.38,78.77ZM44.73,94.95a7.36,7.36,0,0,1,.74-3.3A4.65,4.65,0,0,1,46.68,90a3,3,0,0,1,2-.8,3.56,3.56,0,0,1,2.93,1.88,6.3,6.3,0,0,1,.83,2,7.92,7.92,0,0,1,.2,1.79c0,3.15-1.77,5.71-4,5.71S44.73,98.1,44.73,94.95Zm8.65,16.19c-1.94-.06-3.44-2.1-3.33-4.56s1.76-4.39,3.71-4.33,3.44,2.1,3.33,4.56S55.33,111.21,53.38,111.14Zm0.85-16.19a8.52,8.52,0,0,1,.19-1.78,7.16,7.16,0,0,1,.75-2A4.08,4.08,0,0,1,57.79,89a2.35,2.35,0,0,1,.6-0.07,1,1,0,0,1,.24,0h0a3.73,3.73,0,0,1,2.69,1.78,6.65,6.65,0,0,1,.89,1.94,8.5,8.5,0,0,1,.3,2.25c0,3.31-1.86,6-4.16,6S54.23,98.26,54.23,94.95Zm8.85,18.43c-2,0-3.62-2-3.62-4.57s1.62-4.58,3.62-4.58,3.62,2.05,3.62,4.58S65.08,113.38,63.08,113.38Zm0.66-18.43a8.65,8.65,0,0,1,.34-2.43,6.63,6.63,0,0,1,1-2.15,3.75,3.75,0,0,1,3-1.69,3.4,3.4,0,0,1,2.25.91,5.32,5.32,0,0,1,1.33,1.81h0a8.17,8.17,0,0,1,.77,3.55c0,3.46-2,6.27-4.36,6.27S63.74,98.41,63.74,94.95Zm9.67,18.49c-2,.07-3.78-2-3.89-4.54s1.46-4.71,3.5-4.78,3.77,2,3.88,4.54S75.45,113.37,73.41,113.44Zm0.23-18.49a7.52,7.52,0,0,1,1.2-4.21,3.68,3.68,0,0,1,3-1.78,3,3,0,0,1,1.71.54h0A6.49,6.49,0,0,1,82,94.95c0,3.31-1.86,6-4.16,6S73.64,98.26,73.64,94.95Zm9.65,16.19c-2,.07-3.61-1.87-3.71-4.33s1.39-4.5,3.33-4.56,3.61,1.88,3.71,4.33S85.23,111.08,83.29,111.14Zm4.22-10.48c-2.19,0-4-2.56-4-5.71s1.78-5.71,4-5.71,4,2.56,4,5.71S89.7,100.66,87.51,100.66Zm9.09-.92c-1.83,0-3.32-2.14-3.32-4.79s1.49-4.79,3.32-4.79,3.33,2.14,3.33,4.79S98.44,99.74,96.6,99.74Z"/><path class="cls-1" d="M58.63,89L57.79,89a2.35,2.35,0,0,1,.6-0.07A1,1,0,0,1,58.63,89Z"/><path class="cls-2" d="M58.63,89L57.79,89a2.35,2.35,0,0,1,.6-0.07A1,1,0,0,1,58.63,89Z"/></svg>