<?xml version="1.0" encoding="utf-8"?>
<!-- Generator: Adobe Illustrator 25.0.0, SVG Export Plug-In . SVG Version: 6.00 Build 0)  -->
<svg version="1.1" id="Layer_1" xmlns="http://www.w3.org/2000/svg" xmlns:xlink="http://www.w3.org/1999/xlink" x="0px" y="0px"
	 viewBox="0 0 451 121" style="enable-background:new 0 0 451 121;" xml:space="preserve">
<style type="text/css">
	.st0{fill:#76A742;}
	.st1{fill:#FECE0B;}
	.st2{fill:#F6F7EB;}
</style>
<g>
	<path class="st0" d="M86.2,3.8c-0.6,0-0.8,0.2-0.9,0.8c-0.2,0.9-0.3,1.8-0.6,2.6c-1,3-3.1,5.3-5.6,7.1c-3.2,2.3-6.7,3.6-10.7,3.6
		c-1.9,0-3.8,0.1-5.7,0.4c-7,0.9-13.2,3.5-18.7,7.9C38.2,30.9,34,36.9,30.8,43.6c-3.8,8.1-5.8,16.6-6.6,25.5
		c-0.6,6.5-0.4,12.9,0.4,19.3c0.8,6.1,2.3,12,4.6,17.7c0.2,0.4,0.4,0.9,0.6,1.3c0.1,0,0.2,0,0.2,0c0.8-0.3,1.5-0.7,2.3-1
		c9.5-4.6,17.9-10.6,25.3-18c0.3-0.3,0.3-0.6,0.2-1c-2.1-5.7-3.6-11.5-4.3-17.5c-0.8-6.7-0.7-13.4,0.7-20c0.1-0.5,0.2-0.9,0.3-1.4
		c-0.1,0-0.1,0-0.2,0c-9.8,12.4-15.6,26.5-17.9,42c0,0-0.1,0-0.1,0c0-0.3,0-0.6,0-0.8c0.1-7.1,1.3-14,3.4-20.8
		c2.5-8.4,6.1-16.3,10.7-23.7C55.6,37,62,30.1,70,24.7c3.6-2.4,7.4-4.2,11.6-5.5c0.5-0.1,0.9-0.3,1.2-0.8c1-1.6,2.1-3.2,3.1-4.8
		c0.1-0.1,0.2-0.2,0.3-0.4c0,0.1,0,0.2,0,0.3c0.2-3.3-0.1-6.6,0.5-9.7C86.6,3.8,86.4,3.8,86.2,3.8z"/>
	<path class="st1" d="M117,44.7c-2.2-5.9-5.6-11-10.5-15c-3.6-3-7.8-5.1-12.3-6.4c-1.3-0.4-2.3-1.2-2.9-2.4
		c-0.3-0.6-0.5-1.2-0.6-1.8c-0.6-2.7-0.4-5.4-0.1-8.1c0.2-2,0.5-4.1,0.8-6.1c0.1-0.7-0.2-1-0.9-1c-1.3,0-2.5,0-3.8,0
		c-0.7,3.1-0.3,6.4-0.5,9.7c0.1,1.7,0.2,3.3-0.1,5c-0.5,2.7-2,4.4-4.7,5.2c-6.9,2.1-12.5,6-16.8,11.8c-3.7,5-5.9,10.7-7,16.8
		c-1.2,6.5-1,13.1,0,19.6c0.9,5.8,2.6,11.5,5,16.9c3.2,7.2,7.5,13.8,13.3,19.2c3.5,3.3,7.5,6,11.9,7.9c0.4,0.2,0.7,0.2,1.1,0
		c1.9-0.9,3.8-1.8,5.6-2.8c5.9-3.5,10.5-8.4,14.3-14c6.7-10.1,10.3-21.2,11-33.2C120.3,58.7,119.5,51.5,117,44.7z M108.4,46
		c3.2,1.4,3.5,5.7,0.7,7.8c-2.1,1.6-5.6,1.6-7.6-0.1c-1.4-1.1-2.1-2.6-1.8-4.5c0.4-2,1.7-3.1,3.6-3.7c0.7-0.2,1.4-0.2,2.3-0.4
		C106.4,45.4,107.5,45.5,108.4,46z M81.2,35.4c0.8-1.6,2-2.6,3.7-3c2.4-0.6,4.9-0.6,7.3,0.1c3.5,1,5,5,3.1,7.9
		c-0.9,1.3-2.1,1.8-3.6,2c-1.1,0.1-2.2,0.1-3.3,0.2c-1.1-0.1-2.3-0.1-3.4-0.2C81.6,42.1,79.7,38.7,81.2,35.4z M79.6,49.7
		c0.1-2.8,2-4.8,4.8-5.2c1.4-0.2,2.7-0.2,4.1-0.3c1.4,0.1,2.7,0.1,4,0.3c3.5,0.5,5.5,3.8,4.5,7.2c-0.7,2.4-2.4,3.7-4.8,4.1
		c-2.8,0.4-5.5,0.4-8.3-0.2C81.3,55,79.5,52.5,79.6,49.7z M68.5,46c2.1-1,4.2-1,6.3,0.1c1.8,0.9,2.8,2.9,2.5,4.9
		c-0.3,1.9-1.8,3.4-3.8,3.8c-0.6,0.1-1.3,0.2-1.6,0.2c-1.4,0-2.5-0.1-3.5-0.6c-1.7-0.8-2.6-2.2-2.6-4.1C65.8,48.3,66.7,46.8,68.5,46
		z M63.1,62.1c0.7-2.3,2.4-3.4,4.7-3.8c0.7-0.1,1.3-0.1,1.8-0.1c1.7,0,3.2,0.1,4.6,0.9c3.6,2.1,3.5,7.5-0.2,9.7
		c-1.5,0.9-3.2,1.1-4.9,1c-1.6-0.1-3.1-0.5-4.3-1.6C62.9,66.5,62.3,64.4,63.1,62.1z M64.9,77.5c0.1-2,1.2-3.4,3.1-4.1
		c2.1-0.7,4.2-0.7,6.3,0c1.9,0.7,3.2,2.6,3,4.6c-0.2,2.2-1.7,3.9-3.8,4.3c-0.8,0.2-1.6,0.2-2.4,0.3c-1.3-0.1-2.5-0.2-3.7-0.8
		C65.7,81,64.8,79.5,64.9,77.5z M73.8,94.8c-2.6,0-4.3-1.7-4.2-4.3c0-2.1,1.3-4.3,4.2-4.3c2.7,0,4.2,2,4.2,4.3
		C78.1,92.6,76.8,94.9,73.8,94.8z M75.1,42.4c-2.2,0-3.6-1.5-3.6-3.7c0-2.3,1.4-3.7,3.7-3.7c2.2,0,3.7,1.5,3.6,3.7
		C78.7,40.7,77.5,42.5,75.1,42.4z M94.5,101.9c-0.1,1.6-1.4,3-3.2,3.5c-0.9,0.3-1.9,0.3-2.9,0.5c-1.3-0.1-2.5-0.3-3.6-0.8
		c-1.4-0.7-2.4-1.8-2.4-3.5c0-1.6,0.9-2.8,2.3-3.4c2.5-1.1,5-1.1,7.5,0C93.8,98.9,94.6,100.4,94.5,101.9z M92.2,95.4
		c-2,0.4-3.9,0.4-5.9,0.2c-1-0.1-2-0.2-3-0.7c-2-1-3-3.2-2.6-5.5c0.4-2,2-3.6,4.2-3.9c1.2-0.1,2.3-0.2,3.7-0.3
		c1.1,0.1,2.5,0.2,3.7,0.4c2.3,0.5,3.8,2.5,3.8,4.9C96.1,93,94.6,94.9,92.2,95.4z M93.1,83.2c-1.9,0.5-3.8,0.5-5.7,0.4
		c-1.2-0.1-2.4-0.1-3.6-0.4c-2.6-0.6-4.3-3-4.1-5.8c0.2-2.8,2.1-4.9,4.8-5.3c1.3-0.2,2.7-0.2,4-0.3c1.4,0.1,2.7,0.2,4,0.3
		c2.6,0.3,4.6,2.5,4.8,5.1C97.4,80.2,95.7,82.6,93.1,83.2z M97.8,64.5c-0.4,3.2-2.5,5.3-5.7,5.6c-2.6,0.2-5.1,0.2-7.7,0
		c-2.8-0.3-5-2.5-5.4-5.3c-0.3-3,1.3-5.6,4-6.5c0.8-0.2,1.6-0.3,2.4-0.4c1-0.1,1.9,0,2.9,0c0-0.1,0-0.1,0-0.2
		c1.6,0.2,3.3,0.2,4.9,0.5C96.2,58.7,98.1,61.5,97.8,64.5z M101.8,35c2.2,0,3.6,1.5,3.6,3.7c0,2.3-1.4,3.7-3.7,3.7
		c-2.2,0-3.6-1.5-3.6-3.7C98.1,36.4,99.5,35,101.8,35z M102.9,94.8c-2.5-0.1-4.2-1.7-4.2-4.3c0-2.1,1.3-4.4,4.2-4.3
		c2.9-0.1,4.2,2.1,4.2,4.3C107.3,92.5,106.1,94.9,102.9,94.8z M111.9,78.6c-0.3,1.8-1.8,3.4-3.7,3.8c-0.8,0.1-1.6,0.2-2.5,0.3
		c-1.2-0.1-2.4-0.2-3.5-0.7c-1.8-0.9-2.8-2.6-2.7-4.6c0.1-1.8,1.4-3.4,3.3-4c2.3-0.7,4.5-0.7,6.7,0.4
		C111.3,74.6,112.2,76.5,111.9,78.6z M113.9,65.3c-0.5,2.2-2.1,3.6-4.2,4.2c-1.9,0.5-3.9,0.5-5.8-0.3c-2.3-1-3.7-3-3.7-5.3
		c0-2.3,1.5-4.4,3.8-5.2c1-0.3,2-0.5,3-0.7c0,0,0,0.1,0,0.1c1.9,0,3.8,0.5,5.2,1.9C113.8,61.4,114.3,63.3,113.9,65.3z"/>
	<path class="st0" d="M6,72c0-1.4-0.1-2.8,0-4.1c1.2-16.6,7.1-31.3,17.7-44.1c4.6-5.6,10.1-10.2,16.7-13.3
		c6.5-3.1,13.3-4.2,20.4-3.1c3.1,0.5,6.1,1.3,9,2.6c2,0.9,4.1,1.1,6.2,1c0.4,0,0.8,0,1.1-0.1c0,0,0.1,0,0.1,0.2
		c-1.1,0.3-2.2,0.7-3.3,1c-1.2,0.2-2.4,0.4-3.5,0.4c-6.5,0-12.8,1.1-18.8,3.6c-6.2,2.6-11.4,6.6-15.9,11.6c-4.5,5-7.9,10.8-10.5,17
		c-2.4,5.7-4.1,11.6-5.2,17.7c-0.2,1.3-0.5,2.7-0.6,4c-0.1,0.4-0.3,0.5-0.6,0.7c-3.4,1.4-6.8,2.8-10.3,4.1C7.8,71.5,6.9,71.7,6,72z"
		/>
</g>
<text transform="matrix(1 0 0 1 925.6265 -28.478)" style="font-family:'MyriadPro-Regular'; font-size:12px;">118,167,66</text>
<g>
	<path class="st2" d="M187.3,93.2c-4.8,0-9.3-0.9-13.4-2.6c-4.1-1.8-7.7-4.2-10.7-7.2c-3-3.1-5.3-6.7-7-10.8
		c-1.7-4.2-2.6-8.6-2.6-13.3V59c0-4.7,0.8-9.2,2.5-13.3c1.7-4.1,4-7.8,7-10.9c3-3.1,6.6-5.6,10.8-7.4c4.2-1.8,8.8-2.7,13.8-2.7
		c3,0,5.8,0.3,8.3,0.8c2.5,0.5,4.8,1.2,6.9,2.1c2.1,0.9,4,2,5.8,3.3c1.8,1.3,3.4,2.6,5,4.2l-7.5,8.6c-2.6-2.5-5.5-4.4-8.4-6
		c-3-1.5-6.3-2.3-10.1-2.3c-3.2,0-6.1,0.6-8.7,1.8c-2.7,1.2-5,2.9-6.9,5c-1.9,2.1-3.4,4.6-4.5,7.4c-1.1,2.8-1.7,5.9-1.7,9.1V59
		c0,3.2,0.6,6.3,1.7,9.1c1.1,2.9,2.6,5.4,4.5,7.5c1.9,2.1,4.2,3.8,6.9,5.1c2.7,1.2,5.6,1.8,8.7,1.8c2,0,3.9-0.2,5.6-0.6
		c1.7-0.4,3.3-1,4.8-1.7c1.5-0.7,3-1.6,4.4-2.7c1.4-1.1,2.8-2.3,4.2-3.6l7.5,7.6c-1.7,1.8-3.5,3.4-5.3,4.8c-1.9,1.5-3.9,2.7-6,3.7
		c-2.1,1-4.5,1.8-7,2.4C193.2,93,190.3,93.2,187.3,93.2z"/>
	<path class="st2" d="M255.5,92.1V86c-1.7,2-3.9,3.7-6.5,5.1s-5.9,2.1-9.6,2.1c-2.3,0-4.6-0.3-6.8-1c-2.2-0.7-4.1-1.6-5.7-2.9
		c-1.6-1.3-2.9-2.9-3.9-4.8c-1-1.9-1.5-4.1-1.5-6.7v-0.2c0-2.8,0.5-5.2,1.5-7.2c1-2,2.4-3.8,4.2-5.1c1.8-1.4,3.9-2.4,6.4-3
		c2.5-0.7,5.2-1,8.1-1c3,0,5.6,0.2,7.7,0.6c2.1,0.4,4.1,0.9,6.1,1.5v-0.9c0-3.5-1.1-6.1-3.2-7.9c-2.1-1.8-5.2-2.7-9.1-2.7
		c-2.8,0-5.4,0.3-7.6,0.9c-2.2,0.6-4.4,1.3-6.7,2.3l-3.1-9.2c2.8-1.3,5.6-2.3,8.5-3c2.9-0.8,6.4-1.1,10.5-1.1c7.4,0,13,1.8,16.6,5.5
		c3.6,3.7,5.4,8.9,5.4,15.6v29.6H255.5z M255.8,71.2c-1.5-0.6-3.2-1-5.2-1.4c-2-0.4-4.1-0.6-6.3-0.6c-3.6,0-6.4,0.7-8.4,2.1
		c-2,1.4-3,3.3-3,5.7v0.2c0,2.4,0.9,4.2,2.8,5.5c1.9,1.3,4.1,1.9,6.9,1.9c1.9,0,3.6-0.3,5.2-0.8c1.6-0.5,3-1.2,4.2-2.1
		c1.2-0.9,2.1-2,2.8-3.3c0.7-1.3,1-2.7,1-4.3V71.2z"/>
	<path class="st2" d="M303.6,93.2c-3.7,0-7.2-0.7-10.3-2c-3.2-1.4-5.9-3.2-8.2-5.5c-2.3-2.3-4.1-5.1-5.4-8.2
		c-1.3-3.2-1.9-6.5-1.9-10v-0.2c0-3.5,0.6-6.9,1.9-10.1c1.3-3.2,3.1-6,5.4-8.3c2.3-2.4,5-4.2,8.2-5.6c3.2-1.4,6.6-2.1,10.4-2.1
		c4.7,0,8.7,0.8,11.8,2.4c3.1,1.6,5.8,3.7,8.2,6.2l-7.1,7.7c-1.8-1.8-3.6-3.3-5.6-4.5c-2-1.2-4.4-1.8-7.3-1.8c-2.1,0-4,0.4-5.8,1.3
		c-1.8,0.9-3.3,2-4.5,3.4c-1.3,1.4-2.3,3.1-3,5c-0.7,1.9-1.1,4-1.1,6.2v0.2c0,2.2,0.4,4.3,1.1,6.2c0.7,2,1.7,3.7,3.1,5.1
		c1.3,1.5,2.9,2.6,4.7,3.5c1.8,0.9,3.8,1.3,6.1,1.3c2.7,0,5.1-0.6,7.1-1.8c2-1.2,4-2.7,5.8-4.5l6.9,6.8c-1.2,1.4-2.5,2.6-3.9,3.8
		c-1.4,1.1-2.9,2.1-4.5,2.9c-1.6,0.8-3.4,1.5-5.4,1.9C308.3,93,306.1,93.2,303.6,93.2z"/>
	<path class="st2" d="M365.1,92.1V86c-1.7,2-3.9,3.7-6.5,5.1s-5.9,2.1-9.6,2.1c-2.3,0-4.6-0.3-6.8-1c-2.2-0.7-4.1-1.6-5.7-2.9
		c-1.6-1.3-2.9-2.9-3.9-4.8c-1-1.9-1.5-4.1-1.5-6.7v-0.2c0-2.8,0.5-5.2,1.5-7.2c1-2,2.4-3.8,4.2-5.1c1.8-1.4,3.9-2.4,6.4-3
		c2.5-0.7,5.2-1,8.1-1c3,0,5.6,0.2,7.7,0.6c2.1,0.4,4.1,0.9,6.1,1.5v-0.9c0-3.5-1.1-6.1-3.2-7.9c-2.1-1.8-5.2-2.7-9.1-2.7
		c-2.8,0-5.4,0.3-7.6,0.9c-2.2,0.6-4.4,1.3-6.7,2.3l-3.1-9.2c2.8-1.3,5.6-2.3,8.5-3c2.9-0.8,6.4-1.1,10.5-1.1c7.4,0,13,1.8,16.6,5.5
		c3.6,3.7,5.4,8.9,5.4,15.6v29.6H365.1z M365.4,71.2c-1.5-0.6-3.2-1-5.2-1.4c-2-0.4-4.1-0.6-6.3-0.6c-3.6,0-6.4,0.7-8.4,2.1
		c-2,1.4-3,3.3-3,5.7v0.2c0,2.4,0.9,4.2,2.8,5.5c1.9,1.3,4.1,1.9,6.9,1.9c1.9,0,3.6-0.3,5.2-0.8c1.6-0.5,3-1.2,4.2-2.1
		c1.2-0.9,2.1-2,2.8-3.3c0.7-1.3,1-2.7,1-4.3V71.2z"/>
	<path class="st2" d="M413.8,93.2c-3.8,0-7.3-0.7-10.5-2c-3.2-1.4-6.1-3.2-8.4-5.5c-2.4-2.3-4.2-5.1-5.5-8.2c-1.3-3.2-2-6.5-2-10
		v-0.2c0-3.6,0.7-7,2-10.1c1.4-3.2,3.2-5.9,5.6-8.3c2.4-2.4,5.2-4.2,8.4-5.6c3.2-1.4,6.8-2.1,10.6-2.1c3.8,0,7.4,0.7,10.6,2
		c3.2,1.4,6.1,3.2,8.4,5.6s4.2,5.1,5.5,8.2c1.3,3.1,2,6.5,2,10.1v0.2c0,3.5-0.7,6.9-2,10c-1.4,3.2-3.2,5.9-5.6,8.3
		c-2.4,2.4-5.2,4.2-8.5,5.6C421.2,92.5,417.6,93.2,413.8,93.2z M414,83.3c2.3,0,4.4-0.4,6.3-1.3c1.9-0.9,3.5-2,4.8-3.5
		c1.3-1.4,2.3-3.1,3-5.1c0.7-1.9,1-4,1-6.1v-0.2c0-2.2-0.4-4.3-1.1-6.2c-0.8-2-1.8-3.7-3.2-5.1c-1.4-1.5-3-2.6-4.8-3.5
		c-1.9-0.9-3.9-1.3-6.2-1.3c-2.3,0-4.3,0.4-6.2,1.3c-1.9,0.9-3.5,2-4.8,3.4c-1.3,1.4-2.3,3.1-3,5c-0.7,1.9-1,4-1,6.2v0.2
		c0,2.1,0.4,4.2,1.1,6.1c0.8,2,1.8,3.7,3.2,5.2c1.4,1.5,3,2.6,4.8,3.5C409.7,82.9,411.8,83.3,414,83.3z"/>
</g>
</svg>
