<?xml version="1.0" encoding="iso-8859-1"?>
<!-- Generator: Adobe Illustrator 19.0.0, SVG Export Plug-In . SVG Version: 6.00 Build 0)  -->
<svg version="1.1" id="Capa_1" xmlns="http://www.w3.org/2000/svg" xmlns:xlink="http://www.w3.org/1999/xlink" x="0px" y="0px"
	 viewBox="0 0 512 512" style="enable-background:new 0 0 512 512;" xml:space="preserve">
<rect style="fill:#496E2D;" width="512" height="512"/>
<polyline style="fill:#0052B4;" points="0,512 0,0 512,0 "/>
<polygon style="fill:#FFDA44;" points="0,466.745 0,512 45.255,512 512,45.255 512,0 466.745,0 "/>
<g>
	<polygon style="fill:#F0F0F0;" points="64.531,35.184 72.211,58.819 97.062,58.819 76.956,73.425 84.636,97.062 64.531,82.453 
		44.425,97.062 52.105,73.425 32,58.819 56.851,58.819 	"/>
	<polygon style="fill:#F0F0F0;" points="191.469,35.184 199.149,58.819 224,58.819 203.894,73.425 211.575,97.062 191.469,82.453 
		171.364,97.062 179.044,73.425 158.938,58.819 183.789,58.819 	"/>
	<polygon style="fill:#F0F0F0;" points="64.531,158.938 72.211,182.573 97.062,182.573 76.956,197.179 84.636,220.816 
		64.531,206.207 44.425,220.816 52.105,197.179 32,182.573 56.851,182.573 	"/>
	<polygon style="fill:#F0F0F0;" points="191.469,158.938 199.149,182.573 224,182.573 203.894,197.179 211.575,220.816 
		191.469,206.207 171.364,220.816 179.044,197.179 158.938,182.573 183.789,182.573 	"/>
	<polygon style="fill:#F0F0F0;" points="128,97.062 135.68,120.696 160.531,120.696 140.425,135.303 148.106,158.938 128,144.331 
		107.895,158.938 115.575,135.303 95.469,120.696 120.32,120.696 	"/>
</g>
<g>
</g>
<g>
</g>
<g>
</g>
<g>
</g>
<g>
</g>
<g>
</g>
<g>
</g>
<g>
</g>
<g>
</g>
<g>
</g>
<g>
</g>
<g>
</g>
<g>
</g>
<g>
</g>
<g>
</g>
</svg>
