<svg xmlns="http://www.w3.org/2000/svg" xmlns:xlink="http://www.w3.org/1999/xlink" width="194.623" height="72.296" viewBox="0 0 194.623 72.296"><defs><style>.a{fill:none;}.b{fill:#191919;}.c{clip-path:url(#a);}.d{fill:#df4d95;}.e{clip-path:url(#b);}</style><clipPath id="a"><rect class="a" width="194.623" height="72.296"/></clipPath><clipPath id="b"><rect class="a" width="194.611" height="72.296"/></clipPath></defs><g transform="translate(-805.991 -293.108)"><path class="b" d="M934.705,354.15h-10.1L916.5,342.261h-.149V354.15h-8.207V318.895h8.207v20.531h.149l7.91-10.048h9.9l-9.551,11.193Z" transform="translate(-33.062 -8.346)"/><path class="b" d="M967.367,359.166h-8.8l-9.75-24.772h9l5.223,14.98h.149l5.223-14.98h8.705Z" transform="translate(-46.225 -13.362)"/><g transform="translate(805.991 293.108)"><g class="c"><path class="d" d="M1046.049,362.215a4.6,4.6,0,0,1-1.468,3.482,4.919,4.919,0,0,1-3.506,1.393,5.245,5.245,0,0,1-3.582-1.393,4.722,4.722,0,0,1-1.095-1.517,4.552,4.552,0,0,1-.4-1.915,4.6,4.6,0,0,1,.4-1.89,4.937,4.937,0,0,1,1.095-1.567,5.389,5.389,0,0,1,1.616-1.069,5.088,5.088,0,0,1,5.472.995,4.606,4.606,0,0,1,1.468,3.482" transform="translate(-880.436 -313.897)"/></g></g><g transform="translate(805.991 293.108)"><g class="e"><path class="b" d="M1017.508,340.828a12.148,12.148,0,0,0-2.985-4.128,13.218,13.218,0,0,0-4.378-2.587,16.2,16.2,0,0,0-10.619,0,12.881,12.881,0,0,0-4.378,2.587,12.3,12.3,0,0,0-2.96,4.128,13.217,13.217,0,0,0-1.094,5.472,13.381,13.381,0,0,0,1.094,5.5,12.487,12.487,0,0,0,2.96,4.178,13.3,13.3,0,0,0,4.378,2.661,15.381,15.381,0,0,0,10.619,0,13.657,13.657,0,0,0,4.378-2.661,12.335,12.335,0,0,0,2.985-4.178,13.393,13.393,0,0,0,1.094-5.5,13.229,13.229,0,0,0-1.094-5.472m-9.1,9.053a4.92,4.92,0,0,1-3.507,1.393,5.236,5.236,0,0,1-3.581-1.393,4.713,4.713,0,0,1-1.095-1.518,4.537,4.537,0,0,1-.4-1.915,4.6,4.6,0,0,1,.4-1.89,4.922,4.922,0,0,1,1.095-1.566,5.4,5.4,0,0,1,1.616-1.07,5.093,5.093,0,0,1,5.472.995,4.866,4.866,0,0,1,0,6.964" transform="translate(-865.901 -306.09)"/><path class="b" d="M1000.614,365.4H805.991v-72.3h194.623Zm-187.472-7.151H993.464V300.259H813.142Z" transform="translate(-805.991 -293.108)"/></g></g><g transform="translate(805.991 293.108)"><g class="c"><path class="b" d="M877.292,354.064h9l-13.915-35.492h-8.805l-13.966,35.492h8.706l1.854-4.966h15.338Zm-14.31-12.5,4.927-13.2h.149l4.742,13.2Z" transform="translate(-820.108 -301.35)"/></g></g></g></svg>