<svg id="Layer_1" data-name="Layer 1" xmlns="http://www.w3.org/2000/svg" viewBox="0 0 117.58 162.73"><defs><style>.cls-1{fill:#2c2a74;}.cls-2{fill:#020058;}.cls-3{fill:#fff;}.cls-4{fill:#9593ba;}.cls-5{fill:#807eac;}.cls-6{fill:none;stroke:#020058;stroke-miterlimit:10;stroke-width:0.94px;}</style></defs><path class="cls-1" d="M112.35,3.76H59.26v159h53.09a5.23,5.23,0,0,0,5.23-5.23V9A5.23,5.23,0,0,0,112.35,3.76Z"/><path class="cls-2" d="M5.23,3.76A5.23,5.23,0,0,0,0,9V157.5a5.23,5.23,0,0,0,5.23,5.23h54V3.76Z"/><rect class="cls-3" x="10.82" y="13.17" width="95.94" height="140.15"/><polygon class="cls-4" points="85.13 21.63 32.45 21.63 28.69 0 88.89 0 85.13 21.63"/><rect class="cls-5" x="20.69" y="35.74" width="75.25" height="4.7"/><rect class="cls-5" x="20.69" y="44.21" width="31.98" height="4.7"/><rect class="cls-6" x="20.69" y="56.44" width="3.76" height="3.76"/><rect class="cls-2" x="29.16" y="56.91" width="54.56" height="2.82"/><rect class="cls-6" x="20.69" y="63.02" width="3.76" height="3.76"/><rect class="cls-2" x="29.16" y="63.49" width="66.78" height="2.82"/><rect class="cls-6" x="20.69" y="69.61" width="3.76" height="3.76"/><rect class="cls-2" x="29.16" y="70.08" width="48.91" height="2.82"/><rect class="cls-6" x="20.69" y="76.19" width="3.76" height="3.76"/><rect class="cls-2" x="29.16" y="76.66" width="60.2" height="2.82"/><rect class="cls-5" x="20.69" y="90.3" width="75.25" height="4.7"/><rect class="cls-5" x="20.69" y="98.77" width="50.79" height="4.7"/><rect class="cls-6" x="20.69" y="110.99" width="3.76" height="3.76"/><rect class="cls-2" x="29.16" y="111.46" width="63.02" height="2.82"/><rect class="cls-6" x="20.69" y="117.58" width="3.76" height="3.76"/><rect class="cls-2" x="29.16" y="118.05" width="48.91" height="2.82"/><rect class="cls-6" x="20.69" y="124.16" width="3.76" height="3.76"/><rect class="cls-2" x="29.16" y="124.63" width="44.21" height="2.82"/><rect class="cls-6" x="20.69" y="130.75" width="3.76" height="3.76"/><rect class="cls-2" x="29.16" y="131.22" width="58.32" height="2.82"/><polygon class="cls-4" points="25.46 67.21 23.9 65.45 25.66 63.89 24.41 62.48 22.65 64.05 21.09 62.29 19.69 63.54 21.25 65.3 19.49 66.86 20.74 68.26 22.5 66.7 24.06 68.46 25.46 67.21"/><polygon class="cls-4" points="25.46 128.35 23.9 126.59 25.66 125.03 24.41 123.63 22.65 125.19 21.09 123.43 19.69 124.68 21.25 126.44 19.49 128 20.74 129.4 22.5 127.84 24.06 129.6 25.46 128.35"/></svg>