<svg xmlns="http://www.w3.org/2000/svg" width="37.452" height="36.528" viewBox="0 0 37.452 36.528"><defs><style>.a{fill:#191919;fill-rule:evenodd;}</style></defs><path class="a" d="M155.044,383.44a18.728,18.728,0,0,0-5.918,36.5c.937.171,1.278-.406,1.278-.9,0-.445-.016-1.622-.025-3.185-5.209,1.132-6.308-2.51-6.308-2.51a4.96,4.96,0,0,0-2.08-2.739c-1.7-1.162.129-1.138.129-1.138a3.932,3.932,0,0,1,2.868,1.929,3.987,3.987,0,0,0,5.45,1.557,4,4,0,0,1,1.189-2.5c-4.158-.472-8.53-2.078-8.53-9.255a7.24,7.24,0,0,1,1.928-5.025,6.728,6.728,0,0,1,.184-4.956s1.571-.5,5.149,1.92a17.757,17.757,0,0,1,9.376,0c3.575-2.423,5.144-1.92,5.144-1.92a6.729,6.729,0,0,1,.187,4.956,7.227,7.227,0,0,1,1.924,5.025c0,7.194-4.379,8.777-8.551,9.24a4.471,4.471,0,0,1,1.271,3.468c0,2.5-.023,4.524-.023,5.138,0,.5.338,1.083,1.288.9a18.729,18.729,0,0,0-5.932-36.494Z" transform="translate(-136.32 -383.44)"/></svg>