<svg xmlns="http://www.w3.org/2000/svg" width="168.129" height="235.857" viewBox="0 0 168.129 235.857"><defs><style>.a{fill:#2c2a74;}.b{fill:#020058;}.c{fill:#fff;}.d{fill:#9593ba;}</style></defs><g transform="translate(58.627) rotate(16)"><path class="a" d="M1292.824,749.969h-44.432v212.7h44.432a12.2,12.2,0,0,0,12.2-12.179V762.157A12.206,12.206,0,0,0,1292.824,749.969Z" transform="translate(-1191.109 -749.969)"/><path class="b" d="M1228.378,749.969a12.187,12.187,0,0,0-12.181,12.188v188.33a12.184,12.184,0,0,0,12.181,12.179h45.1v-212.7Z" transform="translate(-1216.197 -749.969)"/><path class="c" d="M1252.525,873.966a9.4,9.4,0,1,1,9.392-9.419A9.41,9.41,0,0,1,1252.525,873.966Z" transform="translate(-1195.229 -667.993)"/><rect class="d" width="88.482" height="166.997" transform="translate(12.716 15.315)"/><path class="c" d="M1280.8,826.937a11.89,11.89,0,0,0-9.777,5.119l-19.76-9.88a11.743,11.743,0,0,0-.134-7.861l20.127-10.9a12.014,12.014,0,1,0-1.621-2.993l-20.129,10.9a11.9,11.9,0,1,0,.235,13.9l19.759,9.88a11.908,11.908,0,1,0,11.3-8.163Z" transform="translate(-1206.962 -723.14)"/></g></svg>